<?xml version="1.0" encoding="utf-8" standalone="no"?>
<!DOCTYPE svg PUBLIC "-//W3C//DTD SVG 1.1//EN"
  "http://www.w3.org/Graphics/SVG/1.1/DTD/svg11.dtd">
<svg xmlns:xlink="http://www.w3.org/1999/xlink" width="460.8pt" height="291.6pt" viewBox="0 0 460.8 291.6" xmlns="http://www.w3.org/2000/svg" version="1.1">
 <metadata>
  <rdf:RDF xmlns:dc="http://purl.org/dc/elements/1.1/" xmlns:cc="http://creativecommons.org/ns#" xmlns:rdf="http://www.w3.org/1999/02/22-rdf-syntax-ns#">
   <cc:Work>
    <dc:type rdf:resource="http://purl.org/dc/dcmitype/StillImage"/>
    <dc:date>2026-08-02T23:39:33.192600</dc:date>
    <dc:format>image/svg+xml</dc:format>
    <dc:creator>
     <cc:Agent>
      <dc:title>Matplotlib v3.10.8, https://matplotlib.org/</dc:title>
     </cc:Agent>
    </dc:creator>
   </cc:Work>
  </rdf:RDF>
 </metadata>
 <defs>
  <style type="text/css">*{stroke-linejoin: round; stroke-linecap: butt}</style>
 </defs>
 <g id="figure_1">
  <g id="patch_1">
   <path d="M 0 291.6 
L 460.8 291.6 
L 460.8 0 
L 0 0 
z
" style="fill: #ffffff"/>
  </g>
  <g id="axes_1">
   <g id="patch_2">
    <path d="M 22.08 95.157692 
L 389.12 95.157692 
Q 390.608 95.157692 390.608 93.558462 
L 390.608 53.577692 
Q 390.608 51.978462 389.12 51.978462 
L 22.08 51.978462 
Q 20.592 51.978462 20.592 53.577692 
L 20.592 93.558462 
Q 20.592 95.157692 22.08 95.157692 
z
" clip-path="url(#p852e066326)" style="fill: #2563eb; stroke: #1f2937; stroke-width: 1.4; stroke-linejoin: miter"/>
   </g>
   <g id="patch_3">
    <path d="M 394.08 71.832974 
Q 394.08 63.169933 394.08 56.74296 
" clip-path="url(#p852e066326)" style="fill: none; stroke: #333333; stroke-width: 2; stroke-linecap: round"/>
    <path d="M 390.88 63.14296 
L 394.08 56.74296 
L 397.28 63.14296 
z
" clip-path="url(#p852e066326)" style="fill: #333333; stroke: #333333; stroke-width: 2; stroke-linecap: round"/>
   </g>
   <g id="patch_4">
    <path d="M 22.08 137.803846 
L 389.12 137.803846 
Q 390.608 137.803846 390.608 136.204615 
L 390.608 96.223846 
Q 390.608 94.624615 389.12 94.624615 
L 22.08 94.624615 
Q 20.592 94.624615 20.592 96.223846 
L 20.592 136.204615 
Q 20.592 137.803846 22.08 137.803846 
z
" clip-path="url(#p852e066326)" style="fill: #7c3edd; stroke: #1f2937; stroke-width: 1.4; stroke-linejoin: miter"/>
   </g>
   <g id="patch_5">
    <path d="M 394.08 114.479128 
Q 394.08 105.816087 394.08 99.389114 
" clip-path="url(#p852e066326)" style="fill: none; stroke: #333333; stroke-width: 2; stroke-linecap: round"/>
    <path d="M 390.88 105.789114 
L 394.08 99.389114 
L 397.28 105.789114 
z
" clip-path="url(#p852e066326)" style="fill: #333333; stroke: #333333; stroke-width: 2; stroke-linecap: round"/>
   </g>
   <g id="patch_6">
    <path d="M 22.08 180.45 
L 389.12 180.45 
Q 390.608 180.45 390.608 178.850769 
L 390.608 138.87 
Q 390.608 137.270769 389.12 137.270769 
L 22.08 137.270769 
Q 20.592 137.270769 20.592 138.87 
L 20.592 178.850769 
Q 20.592 180.45 22.08 180.45 
z
" clip-path="url(#p852e066326)" style="fill: #d97706; stroke: #1f2937; stroke-width: 1.4; stroke-linejoin: miter"/>
   </g>
   <g id="patch_7">
    <path d="M 394.08 157.125282 
Q 394.08 148.462241 394.08 142.035267 
" clip-path="url(#p852e066326)" style="fill: none; stroke: #333333; stroke-width: 2; stroke-linecap: round"/>
    <path d="M 390.88 148.435267 
L 394.08 142.035267 
L 397.28 148.435267 
z
" clip-path="url(#p852e066326)" style="fill: #333333; stroke: #333333; stroke-width: 2; stroke-linecap: round"/>
   </g>
   <g id="patch_8">
    <path d="M 22.08 223.096154 
L 389.12 223.096154 
Q 390.608 223.096154 390.608 221.496923 
L 390.608 181.516154 
Q 390.608 179.916923 389.12 179.916923 
L 22.08 179.916923 
Q 20.592 179.916923 20.592 181.516154 
L 20.592 221.496923 
Q 20.592 223.096154 22.08 223.096154 
z
" clip-path="url(#p852e066326)" style="fill: #16a34a; stroke: #1f2937; stroke-width: 1.4; stroke-linejoin: miter"/>
   </g>
   <g id="patch_9">
    <path d="M 394.08 199.771436 
Q 394.08 191.108394 394.08 184.681421 
" clip-path="url(#p852e066326)" style="fill: none; stroke: #333333; stroke-width: 2; stroke-linecap: round"/>
    <path d="M 390.88 191.081421 
L 394.08 184.681421 
L 397.28 191.081421 
z
" clip-path="url(#p852e066326)" style="fill: #333333; stroke: #333333; stroke-width: 2; stroke-linecap: round"/>
   </g>
   <g id="patch_10">
    <path d="M 22.08 265.742308 
L 389.12 265.742308 
Q 390.608 265.742308 390.608 264.143077 
L 390.608 224.162308 
Q 390.608 222.563077 389.12 222.563077 
L 22.08 222.563077 
Q 20.592 222.563077 20.592 224.162308 
L 20.592 264.143077 
Q 20.592 265.742308 22.08 265.742308 
z
" clip-path="url(#p852e066326)" style="fill: #dc2626; stroke: #1f2937; stroke-width: 1.4; stroke-linejoin: miter"/>
   </g>
   <g id="patch_11">
    <path d="M 394.08 242.417589 
Q 394.08 233.754548 394.08 227.327575 
" clip-path="url(#p852e066326)" style="fill: none; stroke: #333333; stroke-width: 2; stroke-linecap: round"/>
    <path d="M 390.88 233.727575 
L 394.08 227.327575 
L 397.28 233.727575 
z
" clip-path="url(#p852e066326)" style="fill: #333333; stroke: #333333; stroke-width: 2; stroke-linecap: round"/>
   </g>
   <g id="text_1">
    <!-- ('Network (VPC/SG/NACL)', '#2563eb') -->
    <g style="fill: #1f2937" transform="translate(103.949258 76.189483) scale(0.095 -0.095)">
     <defs>
      <path id="DejaVuSans-Bold-28" d="M 2413 -844 
L 1484 -844 
Q 1006 -72 778 623 
Q 550 1319 550 2003 
Q 550 2688 779 3389 
Q 1009 4091 1484 4856 
L 2413 4856 
Q 2013 4116 1813 3408 
Q 1613 2700 1613 2009 
Q 1613 1319 1811 609 
Q 2009 -100 2413 -844 
z
" transform="scale(0.015625)"/>
      <path id="DejaVuSans-Bold-27" d="M 1350 4666 
L 1350 2931 
L 609 2931 
L 609 4666 
L 1350 4666 
z
" transform="scale(0.015625)"/>
      <path id="DejaVuSans-Bold-4e" d="M 588 4666 
L 1931 4666 
L 3628 1466 
L 3628 4666 
L 4769 4666 
L 4769 0 
L 3425 0 
L 1728 3200 
L 1728 0 
L 588 0 
L 588 4666 
z
" transform="scale(0.015625)"/>
      <path id="DejaVuSans-Bold-65" d="M 4031 1759 
L 4031 1441 
L 1416 1441 
Q 1456 1047 1700 850 
Q 1944 653 2381 653 
Q 2734 653 3104 758 
Q 3475 863 3866 1075 
L 3866 213 
Q 3469 63 3072 -14 
Q 2675 -91 2278 -91 
Q 1328 -91 801 392 
Q 275 875 275 1747 
Q 275 2603 792 3093 
Q 1309 3584 2216 3584 
Q 3041 3584 3536 3087 
Q 4031 2591 4031 1759 
z
M 2881 2131 
Q 2881 2450 2695 2645 
Q 2509 2841 2209 2841 
Q 1884 2841 1681 2658 
Q 1478 2475 1428 2131 
L 2881 2131 
z
" transform="scale(0.015625)"/>
      <path id="DejaVuSans-Bold-74" d="M 1759 4494 
L 1759 3500 
L 2913 3500 
L 2913 2700 
L 1759 2700 
L 1759 1216 
Q 1759 972 1856 886 
Q 1953 800 2241 800 
L 2816 800 
L 2816 0 
L 1856 0 
Q 1194 0 917 276 
Q 641 553 641 1216 
L 641 2700 
L 84 2700 
L 84 3500 
L 641 3500 
L 641 4494 
L 1759 4494 
z
" transform="scale(0.015625)"/>
      <path id="DejaVuSans-Bold-77" d="M 225 3500 
L 1313 3500 
L 1900 1088 
L 2491 3500 
L 3425 3500 
L 4013 1113 
L 4603 3500 
L 5691 3500 
L 4769 0 
L 3547 0 
L 2956 2406 
L 2369 0 
L 1147 0 
L 225 3500 
z
" transform="scale(0.015625)"/>
      <path id="DejaVuSans-Bold-6f" d="M 2203 2784 
Q 1831 2784 1636 2517 
Q 1441 2250 1441 1747 
Q 1441 1244 1636 976 
Q 1831 709 2203 709 
Q 2569 709 2762 976 
Q 2956 1244 2956 1747 
Q 2956 2250 2762 2517 
Q 2569 2784 2203 2784 
z
M 2203 3584 
Q 3106 3584 3614 3096 
Q 4122 2609 4122 1747 
Q 4122 884 3614 396 
Q 3106 -91 2203 -91 
Q 1297 -91 786 396 
Q 275 884 275 1747 
Q 275 2609 786 3096 
Q 1297 3584 2203 3584 
z
" transform="scale(0.015625)"/>
      <path id="DejaVuSans-Bold-72" d="M 3138 2547 
Q 2991 2616 2845 2648 
Q 2700 2681 2553 2681 
Q 2122 2681 1889 2404 
Q 1656 2128 1656 1613 
L 1656 0 
L 538 0 
L 538 3500 
L 1656 3500 
L 1656 2925 
Q 1872 3269 2151 3426 
Q 2431 3584 2822 3584 
Q 2878 3584 2943 3579 
Q 3009 3575 3134 3559 
L 3138 2547 
z
" transform="scale(0.015625)"/>
      <path id="DejaVuSans-Bold-6b" d="M 538 4863 
L 1656 4863 
L 1656 2216 
L 2944 3500 
L 4244 3500 
L 2534 1894 
L 4378 0 
L 3022 0 
L 1656 1459 
L 1656 0 
L 538 0 
L 538 4863 
z
" transform="scale(0.015625)"/>
      <path id="DejaVuSans-Bold-20" transform="scale(0.015625)"/>
      <path id="DejaVuSans-Bold-56" d="M 31 4666 
L 1241 4666 
L 2478 1222 
L 3713 4666 
L 4922 4666 
L 3194 0 
L 1759 0 
L 31 4666 
z
" transform="scale(0.015625)"/>
      <path id="DejaVuSans-Bold-50" d="M 588 4666 
L 2584 4666 
Q 3475 4666 3951 4270 
Q 4428 3875 4428 3144 
Q 4428 2409 3951 2014 
Q 3475 1619 2584 1619 
L 1791 1619 
L 1791 0 
L 588 0 
L 588 4666 
z
M 1791 3794 
L 1791 2491 
L 2456 2491 
Q 2806 2491 2997 2661 
Q 3188 2831 3188 3144 
Q 3188 3456 2997 3625 
Q 2806 3794 2456 3794 
L 1791 3794 
z
" transform="scale(0.015625)"/>
      <path id="DejaVuSans-Bold-43" d="M 4288 256 
Q 3956 84 3597 -3 
Q 3238 -91 2847 -91 
Q 1681 -91 1000 561 
Q 319 1213 319 2328 
Q 319 3447 1000 4098 
Q 1681 4750 2847 4750 
Q 3238 4750 3597 4662 
Q 3956 4575 4288 4403 
L 4288 3438 
Q 3953 3666 3628 3772 
Q 3303 3878 2944 3878 
Q 2300 3878 1931 3465 
Q 1563 3053 1563 2328 
Q 1563 1606 1931 1193 
Q 2300 781 2944 781 
Q 3303 781 3628 887 
Q 3953 994 4288 1222 
L 4288 256 
z
" transform="scale(0.015625)"/>
      <path id="DejaVuSans-Bold-2f" d="M 1644 4666 
L 2338 4666 
L 691 -594 
L 0 -594 
L 1644 4666 
z
" transform="scale(0.015625)"/>
      <path id="DejaVuSans-Bold-53" d="M 3834 4519 
L 3834 3531 
Q 3450 3703 3084 3790 
Q 2719 3878 2394 3878 
Q 1963 3878 1756 3759 
Q 1550 3641 1550 3391 
Q 1550 3203 1689 3098 
Q 1828 2994 2194 2919 
L 2706 2816 
Q 3484 2659 3812 2340 
Q 4141 2022 4141 1434 
Q 4141 663 3683 286 
Q 3225 -91 2284 -91 
Q 1841 -91 1394 -6 
Q 947 78 500 244 
L 500 1259 
Q 947 1022 1364 901 
Q 1781 781 2169 781 
Q 2563 781 2772 912 
Q 2981 1044 2981 1288 
Q 2981 1506 2839 1625 
Q 2697 1744 2272 1838 
L 1806 1941 
Q 1106 2091 782 2419 
Q 459 2747 459 3303 
Q 459 4000 909 4375 
Q 1359 4750 2203 4750 
Q 2588 4750 2994 4692 
Q 3400 4634 3834 4519 
z
" transform="scale(0.015625)"/>
      <path id="DejaVuSans-Bold-47" d="M 4781 347 
Q 4331 128 3847 18 
Q 3363 -91 2847 -91 
Q 1681 -91 1000 561 
Q 319 1213 319 2328 
Q 319 3456 1012 4103 
Q 1706 4750 2913 4750 
Q 3378 4750 3804 4662 
Q 4231 4575 4609 4403 
L 4609 3438 
Q 4219 3659 3833 3768 
Q 3447 3878 3059 3878 
Q 2341 3878 1952 3476 
Q 1563 3075 1563 2328 
Q 1563 1588 1938 1184 
Q 2313 781 3003 781 
Q 3191 781 3352 804 
Q 3513 828 3641 878 
L 3641 1784 
L 2906 1784 
L 2906 2591 
L 4781 2591 
L 4781 347 
z
" transform="scale(0.015625)"/>
      <path id="DejaVuSans-Bold-41" d="M 3419 850 
L 1538 850 
L 1241 0 
L 31 0 
L 1759 4666 
L 3194 4666 
L 4922 0 
L 3713 0 
L 3419 850 
z
M 1838 1716 
L 3116 1716 
L 2478 3572 
L 1838 1716 
z
" transform="scale(0.015625)"/>
      <path id="DejaVuSans-Bold-4c" d="M 588 4666 
L 1791 4666 
L 1791 909 
L 3903 909 
L 3903 0 
L 588 0 
L 588 4666 
z
" transform="scale(0.015625)"/>
      <path id="DejaVuSans-Bold-29" d="M 513 -844 
Q 913 -100 1113 609 
Q 1313 1319 1313 2009 
Q 1313 2700 1113 3408 
Q 913 4116 513 4856 
L 1441 4856 
Q 1916 4091 2145 3389 
Q 2375 2688 2375 2003 
Q 2375 1319 2147 623 
Q 1919 -72 1441 -844 
L 513 -844 
z
" transform="scale(0.015625)"/>
      <path id="DejaVuSans-Bold-2c" d="M 653 1209 
L 1778 1209 
L 1778 256 
L 1006 -909 
L 341 -909 
L 653 256 
L 653 1209 
z
" transform="scale(0.015625)"/>
      <path id="DejaVuSans-Bold-23" d="M 2847 4594 
L 2547 3391 
L 3372 3391 
L 3675 4594 
L 4366 4594 
L 4063 3391 
L 4928 3391 
L 4928 2725 
L 3897 2725 
L 3681 1869 
L 4569 1869 
L 4569 1197 
L 3519 1197 
L 3219 0 
L 2528 0 
L 2828 1197 
L 2003 1197 
L 1703 0 
L 1006 0 
L 1306 1197 
L 434 1197 
L 434 1869 
L 1459 1869 
L 1678 2725 
L 794 2725 
L 794 3391 
L 1850 3391 
L 2150 4594 
L 2847 4594 
z
M 3200 2725 
L 2375 2725 
L 2156 1869 
L 2981 1869 
L 3200 2725 
z
" transform="scale(0.015625)"/>
      <path id="DejaVuSans-Bold-32" d="M 1844 884 
L 3897 884 
L 3897 0 
L 506 0 
L 506 884 
L 2209 2388 
Q 2438 2594 2547 2791 
Q 2656 2988 2656 3200 
Q 2656 3528 2436 3728 
Q 2216 3928 1850 3928 
Q 1569 3928 1234 3808 
Q 900 3688 519 3450 
L 519 4475 
Q 925 4609 1322 4679 
Q 1719 4750 2100 4750 
Q 2938 4750 3402 4381 
Q 3866 4013 3866 3353 
Q 3866 2972 3669 2642 
Q 3472 2313 2841 1759 
L 1844 884 
z
" transform="scale(0.015625)"/>
      <path id="DejaVuSans-Bold-35" d="M 678 4666 
L 3669 4666 
L 3669 3781 
L 1638 3781 
L 1638 3059 
Q 1775 3097 1914 3117 
Q 2053 3138 2203 3138 
Q 3056 3138 3531 2711 
Q 4006 2284 4006 1522 
Q 4006 766 3489 337 
Q 2972 -91 2053 -91 
Q 1656 -91 1267 -14 
Q 878 63 494 219 
L 494 1166 
Q 875 947 1217 837 
Q 1559 728 1863 728 
Q 2300 728 2551 942 
Q 2803 1156 2803 1522 
Q 2803 1891 2551 2103 
Q 2300 2316 1863 2316 
Q 1603 2316 1309 2248 
Q 1016 2181 678 2041 
L 678 4666 
z
" transform="scale(0.015625)"/>
      <path id="DejaVuSans-Bold-36" d="M 2316 2303 
Q 2000 2303 1842 2098 
Q 1684 1894 1684 1484 
Q 1684 1075 1842 870 
Q 2000 666 2316 666 
Q 2634 666 2792 870 
Q 2950 1075 2950 1484 
Q 2950 1894 2792 2098 
Q 2634 2303 2316 2303 
z
M 3803 4544 
L 3803 3681 
Q 3506 3822 3243 3889 
Q 2981 3956 2731 3956 
Q 2194 3956 1894 3657 
Q 1594 3359 1544 2772 
Q 1750 2925 1990 3001 
Q 2231 3078 2516 3078 
Q 3231 3078 3670 2659 
Q 4109 2241 4109 1563 
Q 4109 813 3618 361 
Q 3128 -91 2303 -91 
Q 1394 -91 895 523 
Q 397 1138 397 2266 
Q 397 3422 980 4083 
Q 1563 4744 2578 4744 
Q 2900 4744 3203 4694 
Q 3506 4644 3803 4544 
z
" transform="scale(0.015625)"/>
      <path id="DejaVuSans-Bold-33" d="M 2981 2516 
Q 3453 2394 3698 2092 
Q 3944 1791 3944 1325 
Q 3944 631 3412 270 
Q 2881 -91 1863 -91 
Q 1503 -91 1142 -33 
Q 781 25 428 141 
L 428 1069 
Q 766 900 1098 814 
Q 1431 728 1753 728 
Q 2231 728 2486 893 
Q 2741 1059 2741 1369 
Q 2741 1688 2480 1852 
Q 2219 2016 1709 2016 
L 1228 2016 
L 1228 2791 
L 1734 2791 
Q 2188 2791 2409 2933 
Q 2631 3075 2631 3366 
Q 2631 3634 2415 3781 
Q 2200 3928 1806 3928 
Q 1516 3928 1219 3862 
Q 922 3797 628 3669 
L 628 4550 
Q 984 4650 1334 4700 
Q 1684 4750 2022 4750 
Q 2931 4750 3382 4451 
Q 3834 4153 3834 3553 
Q 3834 3144 3618 2883 
Q 3403 2622 2981 2516 
z
" transform="scale(0.015625)"/>
      <path id="DejaVuSans-Bold-62" d="M 2400 722 
Q 2759 722 2948 984 
Q 3138 1247 3138 1747 
Q 3138 2247 2948 2509 
Q 2759 2772 2400 2772 
Q 2041 2772 1848 2508 
Q 1656 2244 1656 1747 
Q 1656 1250 1848 986 
Q 2041 722 2400 722 
z
M 1656 2988 
Q 1888 3294 2169 3439 
Q 2450 3584 2816 3584 
Q 3463 3584 3878 3070 
Q 4294 2556 4294 1747 
Q 4294 938 3878 423 
Q 3463 -91 2816 -91 
Q 2450 -91 2169 54 
Q 1888 200 1656 506 
L 1656 0 
L 538 0 
L 538 4863 
L 1656 4863 
L 1656 2988 
z
" transform="scale(0.015625)"/>
     </defs>
     <use xlink:href="#DejaVuSans-Bold-28"/>
     <use xlink:href="#DejaVuSans-Bold-27" transform="translate(45.703125 0)"/>
     <use xlink:href="#DejaVuSans-Bold-4e" transform="translate(76.318359 0)"/>
     <use xlink:href="#DejaVuSans-Bold-65" transform="translate(160.009766 0)"/>
     <use xlink:href="#DejaVuSans-Bold-74" transform="translate(227.832031 0)"/>
     <use xlink:href="#DejaVuSans-Bold-77" transform="translate(275.634766 0)"/>
     <use xlink:href="#DejaVuSans-Bold-6f" transform="translate(368.017578 0)"/>
     <use xlink:href="#DejaVuSans-Bold-72" transform="translate(436.71875 0)"/>
     <use xlink:href="#DejaVuSans-Bold-6b" transform="translate(486.035156 0)"/>
     <use xlink:href="#DejaVuSans-Bold-20" transform="translate(552.539062 0)"/>
     <use xlink:href="#DejaVuSans-Bold-28" transform="translate(587.353516 0)"/>
     <use xlink:href="#DejaVuSans-Bold-56" transform="translate(633.056641 0)"/>
     <use xlink:href="#DejaVuSans-Bold-50" transform="translate(710.449219 0)"/>
     <use xlink:href="#DejaVuSans-Bold-43" transform="translate(783.740234 0)"/>
     <use xlink:href="#DejaVuSans-Bold-2f" transform="translate(857.128906 0)"/>
     <use xlink:href="#DejaVuSans-Bold-53" transform="translate(893.652344 0)"/>
     <use xlink:href="#DejaVuSans-Bold-47" transform="translate(965.673828 0)"/>
     <use xlink:href="#DejaVuSans-Bold-2f" transform="translate(1047.753906 0)"/>
     <use xlink:href="#DejaVuSans-Bold-4e" transform="translate(1084.277344 0)"/>
     <use xlink:href="#DejaVuSans-Bold-41" transform="translate(1167.96875 0)"/>
     <use xlink:href="#DejaVuSans-Bold-43" transform="translate(1245.361328 0)"/>
     <use xlink:href="#DejaVuSans-Bold-4c" transform="translate(1318.75 0)"/>
     <use xlink:href="#DejaVuSans-Bold-29" transform="translate(1382.470703 0)"/>
     <use xlink:href="#DejaVuSans-Bold-27" transform="translate(1428.173828 0)"/>
     <use xlink:href="#DejaVuSans-Bold-2c" transform="translate(1458.789062 0)"/>
     <use xlink:href="#DejaVuSans-Bold-20" transform="translate(1496.777344 0)"/>
     <use xlink:href="#DejaVuSans-Bold-27" transform="translate(1531.591797 0)"/>
     <use xlink:href="#DejaVuSans-Bold-23" transform="translate(1562.207031 0)"/>
     <use xlink:href="#DejaVuSans-Bold-32" transform="translate(1645.996094 0)"/>
     <use xlink:href="#DejaVuSans-Bold-35" transform="translate(1715.576172 0)"/>
     <use xlink:href="#DejaVuSans-Bold-36" transform="translate(1785.15625 0)"/>
     <use xlink:href="#DejaVuSans-Bold-33" transform="translate(1854.736328 0)"/>
     <use xlink:href="#DejaVuSans-Bold-65" transform="translate(1924.316406 0)"/>
     <use xlink:href="#DejaVuSans-Bold-62" transform="translate(1992.138672 0)"/>
     <use xlink:href="#DejaVuSans-Bold-27" transform="translate(2063.720703 0)"/>
     <use xlink:href="#DejaVuSans-Bold-29" transform="translate(2094.335938 0)"/>
    </g>
   </g>
   <g id="text_2">
    <!-- ('Perimeter (WAF/Shield)', '#7c3edd') -->
    <g style="fill: #1f2937" transform="translate(105.518984 118.835637) scale(0.095 -0.095)">
     <defs>
      <path id="DejaVuSans-Bold-69" d="M 538 3500 
L 1656 3500 
L 1656 0 
L 538 0 
L 538 3500 
z
M 538 4863 
L 1656 4863 
L 1656 3950 
L 538 3950 
L 538 4863 
z
" transform="scale(0.015625)"/>
      <path id="DejaVuSans-Bold-6d" d="M 3781 2919 
Q 3994 3244 4286 3414 
Q 4578 3584 4928 3584 
Q 5531 3584 5847 3212 
Q 6163 2841 6163 2131 
L 6163 0 
L 5038 0 
L 5038 1825 
Q 5041 1866 5042 1909 
Q 5044 1953 5044 2034 
Q 5044 2406 4934 2573 
Q 4825 2741 4581 2741 
Q 4263 2741 4089 2478 
Q 3916 2216 3909 1719 
L 3909 0 
L 2784 0 
L 2784 1825 
Q 2784 2406 2684 2573 
Q 2584 2741 2328 2741 
Q 2006 2741 1831 2477 
Q 1656 2213 1656 1722 
L 1656 0 
L 531 0 
L 531 3500 
L 1656 3500 
L 1656 2988 
Q 1863 3284 2130 3434 
Q 2397 3584 2719 3584 
Q 3081 3584 3359 3409 
Q 3638 3234 3781 2919 
z
" transform="scale(0.015625)"/>
      <path id="DejaVuSans-Bold-57" d="M 191 4666 
L 1344 4666 
L 2150 1275 
L 2950 4666 
L 4109 4666 
L 4909 1275 
L 5716 4666 
L 6859 4666 
L 5759 0 
L 4372 0 
L 3525 3547 
L 2688 0 
L 1300 0 
L 191 4666 
z
" transform="scale(0.015625)"/>
      <path id="DejaVuSans-Bold-46" d="M 588 4666 
L 3834 4666 
L 3834 3756 
L 1791 3756 
L 1791 2888 
L 3713 2888 
L 3713 1978 
L 1791 1978 
L 1791 0 
L 588 0 
L 588 4666 
z
" transform="scale(0.015625)"/>
      <path id="DejaVuSans-Bold-68" d="M 4056 2131 
L 4056 0 
L 2931 0 
L 2931 347 
L 2931 1625 
Q 2931 2084 2911 2256 
Q 2891 2428 2841 2509 
Q 2775 2619 2662 2680 
Q 2550 2741 2406 2741 
Q 2056 2741 1856 2470 
Q 1656 2200 1656 1722 
L 1656 0 
L 538 0 
L 538 4863 
L 1656 4863 
L 1656 2988 
Q 1909 3294 2193 3439 
Q 2478 3584 2822 3584 
Q 3428 3584 3742 3212 
Q 4056 2841 4056 2131 
z
" transform="scale(0.015625)"/>
      <path id="DejaVuSans-Bold-6c" d="M 538 4863 
L 1656 4863 
L 1656 0 
L 538 0 
L 538 4863 
z
" transform="scale(0.015625)"/>
      <path id="DejaVuSans-Bold-64" d="M 2919 2988 
L 2919 4863 
L 4044 4863 
L 4044 0 
L 2919 0 
L 2919 506 
Q 2688 197 2409 53 
Q 2131 -91 1766 -91 
Q 1119 -91 703 423 
Q 288 938 288 1747 
Q 288 2556 703 3070 
Q 1119 3584 1766 3584 
Q 2128 3584 2408 3439 
Q 2688 3294 2919 2988 
z
M 2181 722 
Q 2541 722 2730 984 
Q 2919 1247 2919 1747 
Q 2919 2247 2730 2509 
Q 2541 2772 2181 2772 
Q 1825 2772 1636 2509 
Q 1447 2247 1447 1747 
Q 1447 1247 1636 984 
Q 1825 722 2181 722 
z
" transform="scale(0.015625)"/>
      <path id="DejaVuSans-Bold-37" d="M 428 4666 
L 3944 4666 
L 3944 3988 
L 2125 0 
L 953 0 
L 2675 3781 
L 428 3781 
L 428 4666 
z
" transform="scale(0.015625)"/>
      <path id="DejaVuSans-Bold-63" d="M 3366 3391 
L 3366 2478 
Q 3138 2634 2908 2709 
Q 2678 2784 2431 2784 
Q 1963 2784 1702 2511 
Q 1441 2238 1441 1747 
Q 1441 1256 1702 982 
Q 1963 709 2431 709 
Q 2694 709 2930 787 
Q 3166 866 3366 1019 
L 3366 103 
Q 3103 6 2833 -42 
Q 2563 -91 2291 -91 
Q 1344 -91 809 395 
Q 275 881 275 1747 
Q 275 2613 809 3098 
Q 1344 3584 2291 3584 
Q 2566 3584 2833 3536 
Q 3100 3488 3366 3391 
z
" transform="scale(0.015625)"/>
     </defs>
     <use xlink:href="#DejaVuSans-Bold-28"/>
     <use xlink:href="#DejaVuSans-Bold-27" transform="translate(45.703125 0)"/>
     <use xlink:href="#DejaVuSans-Bold-50" transform="translate(76.318359 0)"/>
     <use xlink:href="#DejaVuSans-Bold-65" transform="translate(149.609375 0)"/>
     <use xlink:href="#DejaVuSans-Bold-72" transform="translate(217.431641 0)"/>
     <use xlink:href="#DejaVuSans-Bold-69" transform="translate(266.748047 0)"/>
     <use xlink:href="#DejaVuSans-Bold-6d" transform="translate(301.025391 0)"/>
     <use xlink:href="#DejaVuSans-Bold-65" transform="translate(405.224609 0)"/>
     <use xlink:href="#DejaVuSans-Bold-74" transform="translate(473.046875 0)"/>
     <use xlink:href="#DejaVuSans-Bold-65" transform="translate(520.849609 0)"/>
     <use xlink:href="#DejaVuSans-Bold-72" transform="translate(588.671875 0)"/>
     <use xlink:href="#DejaVuSans-Bold-20" transform="translate(637.988281 0)"/>
     <use xlink:href="#DejaVuSans-Bold-28" transform="translate(672.802734 0)"/>
     <use xlink:href="#DejaVuSans-Bold-57" transform="translate(718.505859 0)"/>
     <use xlink:href="#DejaVuSans-Bold-41" transform="translate(824.308594 0)"/>
     <use xlink:href="#DejaVuSans-Bold-46" transform="translate(901.701172 0)"/>
     <use xlink:href="#DejaVuSans-Bold-2f" transform="translate(970.011719 0)"/>
     <use xlink:href="#DejaVuSans-Bold-53" transform="translate(1006.535156 0)"/>
     <use xlink:href="#DejaVuSans-Bold-68" transform="translate(1078.556641 0)"/>
     <use xlink:href="#DejaVuSans-Bold-69" transform="translate(1149.748047 0)"/>
     <use xlink:href="#DejaVuSans-Bold-65" transform="translate(1184.025391 0)"/>
     <use xlink:href="#DejaVuSans-Bold-6c" transform="translate(1251.847656 0)"/>
     <use xlink:href="#DejaVuSans-Bold-64" transform="translate(1286.125 0)"/>
     <use xlink:href="#DejaVuSans-Bold-29" transform="translate(1357.707031 0)"/>
     <use xlink:href="#DejaVuSans-Bold-27" transform="translate(1403.410156 0)"/>
     <use xlink:href="#DejaVuSans-Bold-2c" transform="translate(1434.025391 0)"/>
     <use xlink:href="#DejaVuSans-Bold-20" transform="translate(1472.013672 0)"/>
     <use xlink:href="#DejaVuSans-Bold-27" transform="translate(1506.828125 0)"/>
     <use xlink:href="#DejaVuSans-Bold-23" transform="translate(1537.443359 0)"/>
     <use xlink:href="#DejaVuSans-Bold-37" transform="translate(1621.232422 0)"/>
     <use xlink:href="#DejaVuSans-Bold-63" transform="translate(1690.8125 0)"/>
     <use xlink:href="#DejaVuSans-Bold-33" transform="translate(1750.089844 0)"/>
     <use xlink:href="#DejaVuSans-Bold-65" transform="translate(1819.669922 0)"/>
     <use xlink:href="#DejaVuSans-Bold-64" transform="translate(1887.492188 0)"/>
     <use xlink:href="#DejaVuSans-Bold-64" transform="translate(1959.074219 0)"/>
     <use xlink:href="#DejaVuSans-Bold-27" transform="translate(2030.65625 0)"/>
     <use xlink:href="#DejaVuSans-Bold-29" transform="translate(2061.271484 0)"/>
    </g>
   </g>
   <g id="text_3">
    <!-- ('Identity (IAM/MFA)', '#d97706') -->
    <g style="fill: #1f2937" transform="translate(118.041172 161.444681) scale(0.095 -0.095)">
     <defs>
      <path id="DejaVuSans-Bold-49" d="M 588 4666 
L 1791 4666 
L 1791 0 
L 588 0 
L 588 4666 
z
" transform="scale(0.015625)"/>
      <path id="DejaVuSans-Bold-6e" d="M 4056 2131 
L 4056 0 
L 2931 0 
L 2931 347 
L 2931 1631 
Q 2931 2084 2911 2256 
Q 2891 2428 2841 2509 
Q 2775 2619 2662 2680 
Q 2550 2741 2406 2741 
Q 2056 2741 1856 2470 
Q 1656 2200 1656 1722 
L 1656 0 
L 538 0 
L 538 3500 
L 1656 3500 
L 1656 2988 
Q 1909 3294 2193 3439 
Q 2478 3584 2822 3584 
Q 3428 3584 3742 3212 
Q 4056 2841 4056 2131 
z
" transform="scale(0.015625)"/>
      <path id="DejaVuSans-Bold-79" d="M 78 3500 
L 1197 3500 
L 2138 1125 
L 2938 3500 
L 4056 3500 
L 2584 -331 
Q 2363 -916 2067 -1148 
Q 1772 -1381 1288 -1381 
L 641 -1381 
L 641 -647 
L 991 -647 
Q 1275 -647 1404 -556 
Q 1534 -466 1606 -231 
L 1638 -134 
L 78 3500 
z
" transform="scale(0.015625)"/>
      <path id="DejaVuSans-Bold-4d" d="M 588 4666 
L 2119 4666 
L 3181 2169 
L 4250 4666 
L 5778 4666 
L 5778 0 
L 4641 0 
L 4641 3413 
L 3566 897 
L 2803 897 
L 1728 3413 
L 1728 0 
L 588 0 
L 588 4666 
z
" transform="scale(0.015625)"/>
      <path id="DejaVuSans-Bold-39" d="M 641 103 
L 641 966 
Q 928 831 1190 764 
Q 1453 697 1709 697 
Q 2247 697 2547 995 
Q 2847 1294 2900 1881 
Q 2688 1725 2447 1647 
Q 2206 1569 1925 1569 
Q 1209 1569 770 1986 
Q 331 2403 331 3084 
Q 331 3838 820 4291 
Q 1309 4744 2131 4744 
Q 3044 4744 3544 4128 
Q 4044 3513 4044 2388 
Q 4044 1231 3459 570 
Q 2875 -91 1856 -91 
Q 1528 -91 1228 -42 
Q 928 6 641 103 
z
M 2125 2350 
Q 2441 2350 2600 2554 
Q 2759 2759 2759 3169 
Q 2759 3575 2600 3781 
Q 2441 3988 2125 3988 
Q 1809 3988 1650 3781 
Q 1491 3575 1491 3169 
Q 1491 2759 1650 2554 
Q 1809 2350 2125 2350 
z
" transform="scale(0.015625)"/>
      <path id="DejaVuSans-Bold-30" d="M 2944 2338 
Q 2944 3213 2780 3570 
Q 2616 3928 2228 3928 
Q 1841 3928 1675 3570 
Q 1509 3213 1509 2338 
Q 1509 1453 1675 1090 
Q 1841 728 2228 728 
Q 2613 728 2778 1090 
Q 2944 1453 2944 2338 
z
M 4147 2328 
Q 4147 1169 3647 539 
Q 3147 -91 2228 -91 
Q 1306 -91 806 539 
Q 306 1169 306 2328 
Q 306 3491 806 4120 
Q 1306 4750 2228 4750 
Q 3147 4750 3647 4120 
Q 4147 3491 4147 2328 
z
" transform="scale(0.015625)"/>
     </defs>
     <use xlink:href="#DejaVuSans-Bold-28"/>
     <use xlink:href="#DejaVuSans-Bold-27" transform="translate(45.703125 0)"/>
     <use xlink:href="#DejaVuSans-Bold-49" transform="translate(76.318359 0)"/>
     <use xlink:href="#DejaVuSans-Bold-64" transform="translate(113.525391 0)"/>
     <use xlink:href="#DejaVuSans-Bold-65" transform="translate(185.107422 0)"/>
     <use xlink:href="#DejaVuSans-Bold-6e" transform="translate(252.929688 0)"/>
     <use xlink:href="#DejaVuSans-Bold-74" transform="translate(324.121094 0)"/>
     <use xlink:href="#DejaVuSans-Bold-69" transform="translate(371.923828 0)"/>
     <use xlink:href="#DejaVuSans-Bold-74" transform="translate(406.201172 0)"/>
     <use xlink:href="#DejaVuSans-Bold-79" transform="translate(454.003906 0)"/>
     <use xlink:href="#DejaVuSans-Bold-20" transform="translate(519.189453 0)"/>
     <use xlink:href="#DejaVuSans-Bold-28" transform="translate(554.003906 0)"/>
     <use xlink:href="#DejaVuSans-Bold-49" transform="translate(599.707031 0)"/>
     <use xlink:href="#DejaVuSans-Bold-41" transform="translate(636.914062 0)"/>
     <use xlink:href="#DejaVuSans-Bold-4d" transform="translate(714.306641 0)"/>
     <use xlink:href="#DejaVuSans-Bold-2f" transform="translate(813.818359 0)"/>
     <use xlink:href="#DejaVuSans-Bold-4d" transform="translate(850.341797 0)"/>
     <use xlink:href="#DejaVuSans-Bold-46" transform="translate(949.853516 0)"/>
     <use xlink:href="#DejaVuSans-Bold-41" transform="translate(1006.664062 0)"/>
     <use xlink:href="#DejaVuSans-Bold-29" transform="translate(1084.056641 0)"/>
     <use xlink:href="#DejaVuSans-Bold-27" transform="translate(1129.759766 0)"/>
     <use xlink:href="#DejaVuSans-Bold-2c" transform="translate(1160.375 0)"/>
     <use xlink:href="#DejaVuSans-Bold-20" transform="translate(1198.363281 0)"/>
     <use xlink:href="#DejaVuSans-Bold-27" transform="translate(1233.177734 0)"/>
     <use xlink:href="#DejaVuSans-Bold-23" transform="translate(1263.792969 0)"/>
     <use xlink:href="#DejaVuSans-Bold-64" transform="translate(1347.582031 0)"/>
     <use xlink:href="#DejaVuSans-Bold-39" transform="translate(1419.164062 0)"/>
     <use xlink:href="#DejaVuSans-Bold-37" transform="translate(1488.744141 0)"/>
     <use xlink:href="#DejaVuSans-Bold-37" transform="translate(1558.324219 0)"/>
     <use xlink:href="#DejaVuSans-Bold-30" transform="translate(1627.904297 0)"/>
     <use xlink:href="#DejaVuSans-Bold-36" transform="translate(1697.484375 0)"/>
     <use xlink:href="#DejaVuSans-Bold-27" transform="translate(1767.064453 0)"/>
     <use xlink:href="#DejaVuSans-Bold-29" transform="translate(1797.679688 0)"/>
    </g>
   </g>
   <g id="text_4">
    <!-- ('Host (hardening)', '#16a34a') -->
    <g style="fill: #1f2937" transform="translate(122.699883 204.090835) scale(0.095 -0.095)">
     <defs>
      <path id="DejaVuSans-Bold-48" d="M 588 4666 
L 1791 4666 
L 1791 2888 
L 3566 2888 
L 3566 4666 
L 4769 4666 
L 4769 0 
L 3566 0 
L 3566 1978 
L 1791 1978 
L 1791 0 
L 588 0 
L 588 4666 
z
" transform="scale(0.015625)"/>
      <path id="DejaVuSans-Bold-73" d="M 3272 3391 
L 3272 2541 
Q 2913 2691 2578 2766 
Q 2244 2841 1947 2841 
Q 1628 2841 1473 2761 
Q 1319 2681 1319 2516 
Q 1319 2381 1436 2309 
Q 1553 2238 1856 2203 
L 2053 2175 
Q 2913 2066 3209 1816 
Q 3506 1566 3506 1031 
Q 3506 472 3093 190 
Q 2681 -91 1863 -91 
Q 1516 -91 1145 -36 
Q 775 19 384 128 
L 384 978 
Q 719 816 1070 734 
Q 1422 653 1784 653 
Q 2113 653 2278 743 
Q 2444 834 2444 1013 
Q 2444 1163 2330 1236 
Q 2216 1309 1875 1350 
L 1678 1375 
Q 931 1469 631 1722 
Q 331 1975 331 2491 
Q 331 3047 712 3315 
Q 1094 3584 1881 3584 
Q 2191 3584 2531 3537 
Q 2872 3491 3272 3391 
z
" transform="scale(0.015625)"/>
      <path id="DejaVuSans-Bold-61" d="M 2106 1575 
Q 1756 1575 1579 1456 
Q 1403 1338 1403 1106 
Q 1403 894 1545 773 
Q 1688 653 1941 653 
Q 2256 653 2472 879 
Q 2688 1106 2688 1447 
L 2688 1575 
L 2106 1575 
z
M 3816 1997 
L 3816 0 
L 2688 0 
L 2688 519 
Q 2463 200 2181 54 
Q 1900 -91 1497 -91 
Q 953 -91 614 226 
Q 275 544 275 1050 
Q 275 1666 698 1953 
Q 1122 2241 2028 2241 
L 2688 2241 
L 2688 2328 
Q 2688 2594 2478 2717 
Q 2269 2841 1825 2841 
Q 1466 2841 1156 2769 
Q 847 2697 581 2553 
L 581 3406 
Q 941 3494 1303 3539 
Q 1666 3584 2028 3584 
Q 2975 3584 3395 3211 
Q 3816 2838 3816 1997 
z
" transform="scale(0.015625)"/>
      <path id="DejaVuSans-Bold-67" d="M 2919 594 
Q 2688 288 2409 144 
Q 2131 0 1766 0 
Q 1125 0 706 504 
Q 288 1009 288 1791 
Q 288 2575 706 3076 
Q 1125 3578 1766 3578 
Q 2131 3578 2409 3434 
Q 2688 3291 2919 2981 
L 2919 3500 
L 4044 3500 
L 4044 353 
Q 4044 -491 3511 -936 
Q 2978 -1381 1966 -1381 
Q 1638 -1381 1331 -1331 
Q 1025 -1281 716 -1178 
L 716 -306 
Q 1009 -475 1290 -558 
Q 1572 -641 1856 -641 
Q 2406 -641 2662 -400 
Q 2919 -159 2919 353 
L 2919 594 
z
M 2181 2772 
Q 1834 2772 1640 2515 
Q 1447 2259 1447 1791 
Q 1447 1309 1634 1061 
Q 1822 813 2181 813 
Q 2531 813 2725 1069 
Q 2919 1325 2919 1791 
Q 2919 2259 2725 2515 
Q 2531 2772 2181 2772 
z
" transform="scale(0.015625)"/>
      <path id="DejaVuSans-Bold-31" d="M 750 831 
L 1813 831 
L 1813 3847 
L 722 3622 
L 722 4441 
L 1806 4666 
L 2950 4666 
L 2950 831 
L 4013 831 
L 4013 0 
L 750 0 
L 750 831 
z
" transform="scale(0.015625)"/>
      <path id="DejaVuSans-Bold-34" d="M 2356 3675 
L 1038 1722 
L 2356 1722 
L 2356 3675 
z
M 2156 4666 
L 3494 4666 
L 3494 1722 
L 4159 1722 
L 4159 850 
L 3494 850 
L 3494 0 
L 2356 0 
L 2356 850 
L 288 850 
L 288 1881 
L 2156 4666 
z
" transform="scale(0.015625)"/>
     </defs>
     <use xlink:href="#DejaVuSans-Bold-28"/>
     <use xlink:href="#DejaVuSans-Bold-27" transform="translate(45.703125 0)"/>
     <use xlink:href="#DejaVuSans-Bold-48" transform="translate(76.318359 0)"/>
     <use xlink:href="#DejaVuSans-Bold-6f" transform="translate(160.009766 0)"/>
     <use xlink:href="#DejaVuSans-Bold-73" transform="translate(228.710938 0)"/>
     <use xlink:href="#DejaVuSans-Bold-74" transform="translate(288.232422 0)"/>
     <use xlink:href="#DejaVuSans-Bold-20" transform="translate(336.035156 0)"/>
     <use xlink:href="#DejaVuSans-Bold-28" transform="translate(370.849609 0)"/>
     <use xlink:href="#DejaVuSans-Bold-68" transform="translate(416.552734 0)"/>
     <use xlink:href="#DejaVuSans-Bold-61" transform="translate(487.744141 0)"/>
     <use xlink:href="#DejaVuSans-Bold-72" transform="translate(555.224609 0)"/>
     <use xlink:href="#DejaVuSans-Bold-64" transform="translate(604.541016 0)"/>
     <use xlink:href="#DejaVuSans-Bold-65" transform="translate(676.123047 0)"/>
     <use xlink:href="#DejaVuSans-Bold-6e" transform="translate(743.945312 0)"/>
     <use xlink:href="#DejaVuSans-Bold-69" transform="translate(815.136719 0)"/>
     <use xlink:href="#DejaVuSans-Bold-6e" transform="translate(849.414062 0)"/>
     <use xlink:href="#DejaVuSans-Bold-67" transform="translate(920.605469 0)"/>
     <use xlink:href="#DejaVuSans-Bold-29" transform="translate(992.1875 0)"/>
     <use xlink:href="#DejaVuSans-Bold-27" transform="translate(1037.890625 0)"/>
     <use xlink:href="#DejaVuSans-Bold-2c" transform="translate(1068.505859 0)"/>
     <use xlink:href="#DejaVuSans-Bold-20" transform="translate(1106.494141 0)"/>
     <use xlink:href="#DejaVuSans-Bold-27" transform="translate(1141.308594 0)"/>
     <use xlink:href="#DejaVuSans-Bold-23" transform="translate(1171.923828 0)"/>
     <use xlink:href="#DejaVuSans-Bold-31" transform="translate(1255.712891 0)"/>
     <use xlink:href="#DejaVuSans-Bold-36" transform="translate(1325.292969 0)"/>
     <use xlink:href="#DejaVuSans-Bold-61" transform="translate(1394.873047 0)"/>
     <use xlink:href="#DejaVuSans-Bold-33" transform="translate(1462.353516 0)"/>
     <use xlink:href="#DejaVuSans-Bold-34" transform="translate(1531.933594 0)"/>
     <use xlink:href="#DejaVuSans-Bold-61" transform="translate(1601.513672 0)"/>
     <use xlink:href="#DejaVuSans-Bold-27" transform="translate(1668.994141 0)"/>
     <use xlink:href="#DejaVuSans-Bold-29" transform="translate(1699.609375 0)"/>
    </g>
   </g>
   <g id="text_5">
    <!-- ('Data (KMS, encryption)', '#dc2626') -->
    <g style="fill: #1f2937" transform="translate(105.861133 246.736989) scale(0.095 -0.095)">
     <defs>
      <path id="DejaVuSans-Bold-44" d="M 1791 3756 
L 1791 909 
L 2222 909 
Q 2959 909 3348 1275 
Q 3738 1641 3738 2338 
Q 3738 3031 3350 3393 
Q 2963 3756 2222 3756 
L 1791 3756 
z
M 588 4666 
L 1856 4666 
Q 2919 4666 3439 4514 
Q 3959 4363 4331 4000 
Q 4659 3684 4818 3271 
Q 4978 2859 4978 2338 
Q 4978 1809 4818 1395 
Q 4659 981 4331 666 
Q 3956 303 3431 151 
Q 2906 0 1856 0 
L 588 0 
L 588 4666 
z
" transform="scale(0.015625)"/>
      <path id="DejaVuSans-Bold-4b" d="M 588 4666 
L 1791 4666 
L 1791 2963 
L 3525 4666 
L 4922 4666 
L 2675 2456 
L 5153 0 
L 3647 0 
L 1791 1838 
L 1791 0 
L 588 0 
L 588 4666 
z
" transform="scale(0.015625)"/>
      <path id="DejaVuSans-Bold-70" d="M 1656 506 
L 1656 -1331 
L 538 -1331 
L 538 3500 
L 1656 3500 
L 1656 2988 
Q 1888 3294 2169 3439 
Q 2450 3584 2816 3584 
Q 3463 3584 3878 3070 
Q 4294 2556 4294 1747 
Q 4294 938 3878 423 
Q 3463 -91 2816 -91 
Q 2450 -91 2169 54 
Q 1888 200 1656 506 
z
M 2400 2772 
Q 2041 2772 1848 2508 
Q 1656 2244 1656 1747 
Q 1656 1250 1848 986 
Q 2041 722 2400 722 
Q 2759 722 2948 984 
Q 3138 1247 3138 1747 
Q 3138 2247 2948 2509 
Q 2759 2772 2400 2772 
z
" transform="scale(0.015625)"/>
     </defs>
     <use xlink:href="#DejaVuSans-Bold-28"/>
     <use xlink:href="#DejaVuSans-Bold-27" transform="translate(45.703125 0)"/>
     <use xlink:href="#DejaVuSans-Bold-44" transform="translate(76.318359 0)"/>
     <use xlink:href="#DejaVuSans-Bold-61" transform="translate(159.326172 0)"/>
     <use xlink:href="#DejaVuSans-Bold-74" transform="translate(226.806641 0)"/>
     <use xlink:href="#DejaVuSans-Bold-61" transform="translate(274.609375 0)"/>
     <use xlink:href="#DejaVuSans-Bold-20" transform="translate(342.089844 0)"/>
     <use xlink:href="#DejaVuSans-Bold-28" transform="translate(376.904297 0)"/>
     <use xlink:href="#DejaVuSans-Bold-4b" transform="translate(422.607422 0)"/>
     <use xlink:href="#DejaVuSans-Bold-4d" transform="translate(500.097656 0)"/>
     <use xlink:href="#DejaVuSans-Bold-53" transform="translate(599.609375 0)"/>
     <use xlink:href="#DejaVuSans-Bold-2c" transform="translate(671.630859 0)"/>
     <use xlink:href="#DejaVuSans-Bold-20" transform="translate(709.619141 0)"/>
     <use xlink:href="#DejaVuSans-Bold-65" transform="translate(744.433594 0)"/>
     <use xlink:href="#DejaVuSans-Bold-6e" transform="translate(812.255859 0)"/>
     <use xlink:href="#DejaVuSans-Bold-63" transform="translate(883.447266 0)"/>
     <use xlink:href="#DejaVuSans-Bold-72" transform="translate(942.724609 0)"/>
     <use xlink:href="#DejaVuSans-Bold-79" transform="translate(992.041016 0)"/>
     <use xlink:href="#DejaVuSans-Bold-70" transform="translate(1057.226562 0)"/>
     <use xlink:href="#DejaVuSans-Bold-74" transform="translate(1128.808594 0)"/>
     <use xlink:href="#DejaVuSans-Bold-69" transform="translate(1176.611328 0)"/>
     <use xlink:href="#DejaVuSans-Bold-6f" transform="translate(1210.888672 0)"/>
     <use xlink:href="#DejaVuSans-Bold-6e" transform="translate(1279.589844 0)"/>
     <use xlink:href="#DejaVuSans-Bold-29" transform="translate(1350.78125 0)"/>
     <use xlink:href="#DejaVuSans-Bold-27" transform="translate(1396.484375 0)"/>
     <use xlink:href="#DejaVuSans-Bold-2c" transform="translate(1427.099609 0)"/>
     <use xlink:href="#DejaVuSans-Bold-20" transform="translate(1465.087891 0)"/>
     <use xlink:href="#DejaVuSans-Bold-27" transform="translate(1499.902344 0)"/>
     <use xlink:href="#DejaVuSans-Bold-23" transform="translate(1530.517578 0)"/>
     <use xlink:href="#DejaVuSans-Bold-64" transform="translate(1614.306641 0)"/>
     <use xlink:href="#DejaVuSans-Bold-63" transform="translate(1685.888672 0)"/>
     <use xlink:href="#DejaVuSans-Bold-32" transform="translate(1745.166016 0)"/>
     <use xlink:href="#DejaVuSans-Bold-36" transform="translate(1814.746094 0)"/>
     <use xlink:href="#DejaVuSans-Bold-32" transform="translate(1884.326172 0)"/>
     <use xlink:href="#DejaVuSans-Bold-36" transform="translate(1953.90625 0)"/>
     <use xlink:href="#DejaVuSans-Bold-27" transform="translate(2023.486328 0)"/>
     <use xlink:href="#DejaVuSans-Bold-29" transform="translate(2054.101562 0)"/>
    </g>
   </g>
   <g id="text_6">
    <!-- Defense in Depth: 5 overlapping layers -->
    <g style="fill: #1f2937" transform="translate(73.31875 37.118221) scale(0.12 -0.12)">
     <defs>
      <path id="DejaVuSans-Bold-66" d="M 2841 4863 
L 2841 4128 
L 2222 4128 
Q 1984 4128 1890 4042 
Q 1797 3956 1797 3744 
L 1797 3500 
L 2753 3500 
L 2753 2700 
L 1797 2700 
L 1797 0 
L 678 0 
L 678 2700 
L 122 2700 
L 122 3500 
L 678 3500 
L 678 3744 
Q 678 4316 997 4589 
Q 1316 4863 1984 4863 
L 2841 4863 
z
" transform="scale(0.015625)"/>
      <path id="DejaVuSans-Bold-3a" d="M 716 3500 
L 1844 3500 
L 1844 2291 
L 716 2291 
L 716 3500 
z
M 716 1209 
L 1844 1209 
L 1844 0 
L 716 0 
L 716 1209 
z
" transform="scale(0.015625)"/>
      <path id="DejaVuSans-Bold-76" d="M 97 3500 
L 1216 3500 
L 2088 1081 
L 2956 3500 
L 4078 3500 
L 2700 0 
L 1472 0 
L 97 3500 
z
" transform="scale(0.015625)"/>
     </defs>
     <use xlink:href="#DejaVuSans-Bold-44"/>
     <use xlink:href="#DejaVuSans-Bold-65" transform="translate(83.007812 0)"/>
     <use xlink:href="#DejaVuSans-Bold-66" transform="translate(150.830078 0)"/>
     <use xlink:href="#DejaVuSans-Bold-65" transform="translate(194.335938 0)"/>
     <use xlink:href="#DejaVuSans-Bold-6e" transform="translate(262.158203 0)"/>
     <use xlink:href="#DejaVuSans-Bold-73" transform="translate(333.349609 0)"/>
     <use xlink:href="#DejaVuSans-Bold-65" transform="translate(392.871094 0)"/>
     <use xlink:href="#DejaVuSans-Bold-20" transform="translate(460.693359 0)"/>
     <use xlink:href="#DejaVuSans-Bold-69" transform="translate(495.507812 0)"/>
     <use xlink:href="#DejaVuSans-Bold-6e" transform="translate(529.785156 0)"/>
     <use xlink:href="#DejaVuSans-Bold-20" transform="translate(600.976562 0)"/>
     <use xlink:href="#DejaVuSans-Bold-44" transform="translate(635.791016 0)"/>
     <use xlink:href="#DejaVuSans-Bold-65" transform="translate(718.798828 0)"/>
     <use xlink:href="#DejaVuSans-Bold-70" transform="translate(786.621094 0)"/>
     <use xlink:href="#DejaVuSans-Bold-74" transform="translate(858.203125 0)"/>
     <use xlink:href="#DejaVuSans-Bold-68" transform="translate(906.005859 0)"/>
     <use xlink:href="#DejaVuSans-Bold-3a" transform="translate(977.197266 0)"/>
     <use xlink:href="#DejaVuSans-Bold-20" transform="translate(1017.1875 0)"/>
     <use xlink:href="#DejaVuSans-Bold-35" transform="translate(1052.001953 0)"/>
     <use xlink:href="#DejaVuSans-Bold-20" transform="translate(1121.582031 0)"/>
     <use xlink:href="#DejaVuSans-Bold-6f" transform="translate(1156.396484 0)"/>
     <use xlink:href="#DejaVuSans-Bold-76" transform="translate(1225.097656 0)"/>
     <use xlink:href="#DejaVuSans-Bold-65" transform="translate(1290.283203 0)"/>
     <use xlink:href="#DejaVuSans-Bold-72" transform="translate(1358.105469 0)"/>
     <use xlink:href="#DejaVuSans-Bold-6c" transform="translate(1407.421875 0)"/>
     <use xlink:href="#DejaVuSans-Bold-61" transform="translate(1441.699219 0)"/>
     <use xlink:href="#DejaVuSans-Bold-70" transform="translate(1509.179688 0)"/>
     <use xlink:href="#DejaVuSans-Bold-70" transform="translate(1580.761719 0)"/>
     <use xlink:href="#DejaVuSans-Bold-69" transform="translate(1652.34375 0)"/>
     <use xlink:href="#DejaVuSans-Bold-6e" transform="translate(1686.621094 0)"/>
     <use xlink:href="#DejaVuSans-Bold-67" transform="translate(1757.8125 0)"/>
     <use xlink:href="#DejaVuSans-Bold-20" transform="translate(1829.394531 0)"/>
     <use xlink:href="#DejaVuSans-Bold-6c" transform="translate(1864.208984 0)"/>
     <use xlink:href="#DejaVuSans-Bold-61" transform="translate(1898.486328 0)"/>
     <use xlink:href="#DejaVuSans-Bold-79" transform="translate(1962.841797 0)"/>
     <use xlink:href="#DejaVuSans-Bold-65" transform="translate(2028.027344 0)"/>
     <use xlink:href="#DejaVuSans-Bold-72" transform="translate(2095.849609 0)"/>
     <use xlink:href="#DejaVuSans-Bold-73" transform="translate(2145.166016 0)"/>
    </g>
   </g>
  </g>
 </g>
 <defs>
  <clipPath id="p852e066326">
   <rect x="7.2" y="7.2" width="446.4" height="277.2"/>
  </clipPath>
 </defs>
</svg>
